<?xml version="1.0" encoding="utf-8"?>
<!-- Generator: Adobe Illustrator 28.0.0, SVG Export Plug-In . SVG Version: 6.00 Build 0)  -->
<svg version="1.1" id="Capa_1" xmlns="http://www.w3.org/2000/svg" xmlns:xlink="http://www.w3.org/1999/xlink" x="0px" y="0px"
	 viewBox="0 0 185.1 258.5" style="enable-background:new 0 0 185.1 258.5;" xml:space="preserve">
<style type="text/css">
	.st0{clip-path:url(#SVGID_00000015355569235388409470000011880065538287040130_);}
	.st1{fill:#FFC303;}
</style>
<g>
	<defs>
		<rect id="SVGID_1_" x="31.1" y="28.1" width="122.9" height="202.3"/>
	</defs>
	<clipPath id="SVGID_00000149364759711541475820000012197623986127785361_">
		<use xlink:href="#SVGID_1_"  style="overflow:visible;"/>
	</clipPath>
	<g id="Grupo_128" style="clip-path:url(#SVGID_00000149364759711541475820000012197623986127785361_);">
		<path id="Trazado_153" class="st1" d="M110.8,230.4H32.6c-0.8,0-1.5-0.7-1.5-1.5L31.5,95c0-0.2,0-0.4,0.1-0.5
			c9-23,9.9-39.2,9-48.8c-1-10.3-4.1-15.3-4.1-15.3c-0.5-0.7-0.3-1.6,0.4-2.1c0.2-0.2,0.5-0.2,0.8-0.2h22.5c0.6,0,1.2,0.4,1.4,0.9
			c0.1,0.1,5.6,14,14.6,14c0.7,0,1.3,0.5,1.5,1.2l34.5,184.4c0.2,0.8-0.4,1.6-1.2,1.8C111,230.4,110.9,230.4,110.8,230.4
			 M34.1,227.4H109L75,46C66.2,45,60.7,34.4,59.3,31.1H40.2c2.9,6.5,8.9,26.9-5.7,64.2L34.1,227.4z"/>
		<path id="Trazado_154" class="st1" d="M152.5,230.4h-41.7c-0.7,0-1.3-0.5-1.5-1.2L89.1,118c0-0.2,0-0.4,0-0.6l18.3-73.2
			c0.2-0.7,0.8-1.1,1.5-1.1c9,0,14.6-13.9,14.6-14c0.2-0.6,0.8-0.9,1.4-0.9h22.5c0.8,0,1.5,0.7,1.5,1.5c0,0.3-0.1,0.6-0.2,0.8
			c0,0-3.1,5-4.1,15.3c-0.9,9.5-0.1,25.8,9,48.8c0.1,0.2,0.1,0.4,0.1,0.5l0.3,133.9C154,229.7,153.3,230.4,152.5,230.4 M112.1,227.4
			H151l-0.3-132.1c-14.6-37.4-8.6-57.7-5.7-64.2h-19.1c-1.5,3.3-7,14-15.8,14.9l-18,71.8L112.1,227.4z"/>
		<path id="Trazado_155" class="st1" d="M77,165.4H33.9c-0.8,0-1.5-0.7-1.5-1.5s0.7-1.5,1.5-1.5h41.7v-14.6H34.6
			c-0.8,0-1.5-0.7-1.5-1.5s0.7-1.5,1.5-1.5H77c0.8,0,1.5,0.7,1.5,1.5v17.6C78.5,164.7,77.9,165.4,77,165.4"/>
		<path id="Trazado_156" class="st1" d="M152.5,165.4h-36.8c-0.8,0-1.5-0.7-1.5-1.5v-17.6c0-0.8,0.7-1.5,1.5-1.5h35.7
			c0.8,0,1.5,0.7,1.5,1.5s-0.7,1.5-1.5,1.5h-34.2v14.6h35.3c0.8,0,1.5,0.7,1.5,1.5S153.3,165.4,152.5,165.4"/>
	</g>
</g>
</svg>
