<svg width="88" height="77" viewBox="0 0 96 83" fill="none" xmlns="http://www.w3.org/2000/svg">
<path d="M46.9184 82.6672C46.6057 82.6672 46.3524 82.4136 46.3524 82.1013V9.99902C46.3524 9.68628 46.6057 9.43286 46.9184 9.43286C47.2312 9.43286 47.4844 9.68628 47.4844 9.99902V82.1013C47.4844 82.4136 47.2312 82.6672 46.9184 82.6672Z" fill="#FFC303"/>
<path d="M94.7826 28.3237C94.6505 28.3237 94.5181 28.2786 94.4109 28.1848L70.5793 7.41382C70.5016 7.41577 70.4239 7.40625 70.3488 7.37866C70.293 7.35742 70.2416 7.32861 70.1964 7.29272L64.3141 7.2915C64.0017 7.2915 63.7482 7.03833 63.7482 6.72559C63.7482 6.41309 64.0017 6.15942 64.3141 6.15942L70.5473 6.16064C70.565 6.16064 70.5828 6.16138 70.6001 6.16333L70.6137 6.16211C70.7658 6.15112 70.9114 6.2019 71.0246 6.2998L95.1542 27.3313C95.3901 27.5366 95.4146 27.8943 95.2093 28.1299C95.0973 28.2583 94.9403 28.3237 94.7826 28.3237Z" fill="#FFC303"/>
<path d="M70.7477 37.617C70.4447 37.617 70.1938 37.377 70.1824 37.0714L69.9776 31.43C69.9692 31.2025 70.0983 30.9918 70.3047 30.8963C70.5115 30.7999 70.7552 30.8375 70.9239 30.9903L75.7394 35.3656C75.9707 35.5758 75.9877 35.9337 75.7775 36.1651C75.5673 36.3963 75.2092 36.4129 74.9779 36.2032L71.1575 32.7323L71.3137 37.0304C71.3254 37.3429 71.0813 37.6051 70.7688 37.6168C70.7616 37.617 70.7548 37.617 70.7477 37.617Z" fill="#FFC303"/>
<path d="M72.2682 82.6671H21.9514C21.7997 82.6671 21.6537 82.6058 21.5473 82.4972C21.4409 82.3885 21.3828 82.2418 21.3859 82.09L21.9899 52.0546C21.9959 51.7465 22.2484 51.5004 22.5556 51.5004H22.5673C22.8797 51.5062 23.1279 51.765 23.1215 52.0775L22.5292 81.5353H71.6852L70.8235 52.516C70.8144 52.2035 71.0601 51.9425 71.3729 51.9337C71.685 51.9044 71.946 52.1696 71.9551 52.4821L72.8343 82.0844C72.8384 82.2374 72.7811 82.3856 72.6742 82.4955C72.5679 82.6051 72.4215 82.6671 72.2682 82.6671Z" fill="#FFC303"/>
<path d="M23.0884 36.9085C23.0771 36.9085 23.0661 36.908 23.0552 36.9073C22.7431 36.8897 22.5046 36.6217 22.5227 36.3099L22.7348 32.63L19.0449 35.5125C18.7989 35.7056 18.4431 35.6615 18.2506 35.4156C18.0582 35.1685 18.102 34.8131 18.3483 34.6207L23.0235 30.9679C23.1985 30.8304 23.4374 30.8099 23.6348 30.9124C23.8313 31.0155 23.9499 31.2244 23.937 31.4464L23.6529 36.3751C23.6355 36.6759 23.3857 36.9085 23.0884 36.9085Z" fill="#FFC303"/>
<path d="M0.566263 28.3086C0.414225 28.3086 0.262125 28.2473 0.150736 28.1262C-0.0616665 27.8975 -0.0476894 27.5393 0.181742 27.3271L22.8997 6.30347C23.0118 6.19897 23.1601 6.14966 23.3149 6.15356C23.3205 6.15381 23.3265 6.1543 23.3326 6.15503C23.3469 6.15381 23.3616 6.15308 23.376 6.15308L29.8921 6.15381C30.2049 6.15381 30.4581 6.40747 30.4581 6.71973C30.4581 7.03247 30.2045 7.28589 29.8921 7.28589L23.705 7.28516C23.6653 7.31372 23.6216 7.33716 23.5744 7.35449C23.5148 7.37695 23.4529 7.38843 23.3918 7.39014L0.950663 28.1577C0.841654 28.2585 0.703531 28.3086 0.566263 28.3086Z" fill="#FFC303"/>
<path d="M40.8977 18.306C40.1611 18.306 39.4642 18.0035 38.9555 17.4572L29.4776 7.26477C29.3031 7.07678 29.2766 6.79529 29.4128 6.57825L33.2385 0.487916C33.3204 0.357789 33.4514 0.266481 33.6019 0.234498C33.7521 0.204469 33.9091 0.234254 34.0363 0.320924L47.3504 9.38904C47.6025 9.56091 47.673 9.90125 47.5104 10.1593L43.1526 17.0653C42.7089 17.7687 41.9791 18.2167 41.1505 18.2941C41.066 18.3019 40.9814 18.306 40.8977 18.306ZM30.6026 6.81213L39.7846 16.6864C40.1098 17.0363 40.5698 17.2106 41.0452 17.1669C41.521 17.1227 41.9403 16.8649 42.1953 16.4606L46.2614 10.0172L33.8846 1.58728L30.6026 6.81213Z" fill="#FFC303"/>
<path d="M53.3059 18.3082C53.2217 18.3082 53.1372 18.3041 53.0523 18.296C52.2237 18.2184 51.4939 17.7704 51.0502 17.0663L46.6946 10.1591C46.532 9.90078 46.6029 9.56093 46.855 9.38881L60.1722 0.325336C60.2994 0.23891 60.4563 0.207416 60.6064 0.239399C60.757 0.271137 60.8883 0.362201 60.9703 0.492328L64.7937 6.58388C64.9299 6.8019 64.9032 7.08339 64.7289 7.27065L55.2472 17.4599C54.739 18.0067 54.042 18.3082 53.3059 18.3082ZM47.944 10.0172L52.0079 16.4628C52.2626 16.8666 52.6817 17.1244 53.1579 17.1691C53.6357 17.216 54.0934 17.0387 54.4186 16.6889L63.604 6.81801L60.3235 1.59218L47.944 10.0172Z" fill="#FFC303"/>
<path d="M60.4907 1.35938L33.7178 1.35498C33.405 1.35498 33.1519 1.10156 33.1519 0.789062C33.1519 0.476562 33.4053 0.2229 33.7178 0.2229L60.491 0.227539C60.8035 0.227539 61.0566 0.480957 61.0566 0.793457C61.0566 1.10596 60.803 1.35938 60.4907 1.35938Z" fill="#FFC303"/>
<path d="M59.2885 39.6057H59.2866H58.5656C56.997 39.6052 55.5228 38.9944 54.4138 37.885C53.3052 36.7761 52.6946 35.302 52.695 33.7336L52.6962 26.29C52.6962 25.9778 52.9498 25.7241 53.2621 25.7241L64.5945 25.7258C64.907 25.7258 65.1606 25.9795 65.1606 26.292L65.1594 33.7349C65.1591 35.304 64.5482 36.7781 63.4388 37.8872C62.3302 38.9954 60.856 39.6057 59.2885 39.6057ZM53.8278 26.8562L53.827 33.7336C53.8267 34.9995 54.3194 36.1899 55.2144 37.0847C56.1095 37.98 57.2996 38.4736 58.5656 38.4736H59.287H59.2881C60.5537 38.4736 61.7435 37.981 62.6385 37.0862C63.5339 36.1912 64.027 35.0012 64.0275 33.7349L64.0286 26.8579L53.8278 26.8562Z" fill="#FFC303"/>
<path d="M36.0562 39.6023H35.334C32.0964 39.6016 29.4631 36.967 29.4634 33.73L29.4646 26.2861C29.4646 25.9739 29.7181 25.72 30.0306 25.72L41.3633 25.7222C41.5131 25.7222 41.6573 25.7817 41.7633 25.8882C41.8697 25.9944 41.929 26.1382 41.929 26.2883L41.9279 33.7319C41.9271 36.969 39.2929 39.6018 36.0562 39.6023ZM30.5966 26.8523L30.5954 33.73C30.595 36.3433 32.7206 38.4697 35.3344 38.4705H36.0554C38.6684 38.4705 40.7951 36.3447 40.7959 33.7319L40.797 26.854L30.5966 26.8523Z" fill="#FFC303"/>
<path d="M57.2237 57.1694C57.1343 57.1694 57.0448 57.1477 56.9637 57.106C56.8298 57.0364 56.7287 56.9163 56.6838 56.7722L53.0006 45.0149C52.9131 44.7356 53.0535 44.4353 53.324 44.323L94.5614 27.2268C94.741 27.1533 94.9474 27.1755 95.1063 27.2883C95.2651 27.4014 95.3546 27.5881 95.3432 27.7832L94.3358 44.8794C94.3222 45.1123 94.1667 45.313 93.9441 45.3845L57.3973 57.1423C57.3407 57.1609 57.2822 57.1694 57.2237 57.1694ZM54.2356 45.1704L57.5936 55.8899L93.2287 44.4258L94.1599 28.6187L54.2356 45.1704Z" fill="#FFC303"/>
<path d="M38.1157 57.1677C38.0571 57.1677 37.9987 57.1589 37.942 57.1406L1.39715 45.3769C1.17486 45.3058 1.01941 45.1047 1.00543 44.8715L0.00097417 27.7756C-0.0104394 27.581 0.0790381 27.3942 0.237913 27.2809C0.397153 27.1679 0.602781 27.1454 0.782773 27.2194L42.0176 44.3222C42.2882 44.4345 42.4286 44.7348 42.3406 45.0141L38.6556 56.7704C38.6103 56.9147 38.5099 57.0348 38.376 57.1042C38.2945 57.1462 38.2054 57.1677 38.1157 57.1677ZM2.11285 44.4181L37.7462 55.8881L41.1056 45.1696L1.1839 28.6117L2.11285 44.4181Z" fill="#FFC303"/>
</svg>
