<svg width="55" height="87" viewBox="0 0 55 87" fill="none" xmlns="http://www.w3.org/2000/svg">
<path d="M51.7407 44.826C51.4647 44.826 51.2361 44.6066 51.2264 44.3287L49.7935 1.71472H4.97294L3.69779 44.3265C3.68925 44.611 3.45237 44.8373 3.16776 44.8258C2.88316 44.8175 2.66001 44.5797 2.66825 44.2958L3.95841 1.18445C3.96665 0.906128 4.19456 0.685181 4.473 0.685181H50.2913C50.5687 0.685181 50.7962 0.904907 50.8059 1.18225L52.2557 44.2938C52.2657 44.578 52.0425 44.8165 51.7586 44.8258C51.7528 44.826 51.7469 44.826 51.7407 44.826Z" fill="#FFC303"/>
<path d="M50.7541 86.7779H36.3619C34.9615 86.7779 33.8107 85.7267 33.6847 84.3319L28.9274 31.7889C28.8674 31.1224 28.375 30.5919 27.7571 30.5279C27.3997 30.4891 27.0519 30.5951 26.778 30.8224C26.5047 31.0499 26.3378 31.3702 26.309 31.7247L22.0303 84.3077C21.9173 85.6927 20.7408 86.7779 19.3511 86.7779H4.57499C3.84416 86.7779 3.16093 86.4898 2.65043 85.9666C2.1403 85.4437 1.869 84.753 1.88762 84.0223L2.50859 59.4745C2.51549 59.19 2.74211 58.9757 3.0363 58.9725C3.32054 58.9798 3.54545 59.2162 3.53825 59.5006L2.91716 84.0479C2.90587 84.4989 3.07304 84.9251 3.38786 85.2474C3.70268 85.5704 4.12425 85.7481 4.57499 85.7481H19.3511C20.2084 85.7481 20.9344 85.0785 21.0038 84.224L25.2825 31.6412C25.3337 31.0084 25.6317 30.4361 26.1198 30.0299C26.6087 29.6246 27.227 29.4386 27.8639 29.5028C28.97 29.6183 29.8488 30.5409 29.9536 31.6964L34.7105 84.2391C34.7884 85.0995 35.4984 85.7481 36.3619 85.7481H50.7541C51.2073 85.7481 51.6299 85.5692 51.945 85.244C52.2602 84.9181 52.426 84.4894 52.4116 84.037L51.8064 59.4037C51.7995 59.1195 52.0243 58.8829 52.3086 58.8761C52.5953 58.8763 52.8291 59.0938 52.8362 59.3783L53.4415 84.0077C53.4645 84.7381 53.1957 85.4327 52.6845 85.9601C52.174 86.4879 51.4884 86.7779 50.7541 86.7779Z" fill="#FFC303"/>
<path d="M9.17749 59.906H3.5451C1.96075 59.906 0.671936 58.6169 0.671936 57.0327V49.8533C0.671936 49.5691 0.902283 49.3384 1.18695 49.3384H9.17749C9.4621 49.3384 9.69244 49.5691 9.69244 49.8533V59.3909C9.69244 59.6753 9.4621 59.906 9.17749 59.906ZM1.70184 50.3684V57.0327C1.70184 58.0493 2.52856 58.8757 3.5451 58.8757H8.66254V50.3684H1.70184Z" fill="#FFC303"/>
<path d="M9.17749 50.3682H1.18695C0.902283 50.3682 0.671936 50.1375 0.671936 49.8533V46.3076C0.671936 44.9226 1.79834 43.7964 3.18292 43.7964H9.17749C9.4621 43.7964 9.69244 44.0269 9.69244 44.311V49.8533C9.69244 50.1375 9.4621 50.3682 9.17749 50.3682ZM1.70184 49.3381H8.66254V44.8262H3.18292C2.36621 44.8262 1.70184 45.491 1.70184 46.3076V49.3381Z" fill="#FFC303"/>
<path d="M51.9282 59.906H46.2958C46.0116 59.906 45.7809 59.6753 45.7809 59.3909V49.8533C45.7809 49.5691 46.0116 49.3384 46.2958 49.3384H54.2864C54.571 49.3384 54.8014 49.5691 54.8014 49.8533V57.0327C54.8014 58.6169 53.5129 59.906 51.9282 59.906ZM46.8109 58.8757H51.9282C52.9448 58.8757 53.7715 58.0493 53.7715 57.0327V50.3684H46.8109V58.8757Z" fill="#FFC303"/>
<path d="M54.2864 50.3682H46.2958C46.0116 50.3682 45.7809 50.1375 45.7809 49.8533V44.311C45.7809 44.0269 46.0116 43.7964 46.2958 43.7964H52.29C53.675 43.7964 54.8014 44.9226 54.8014 46.3076V49.8533C54.8014 50.1375 54.571 50.3682 54.2864 50.3682ZM46.8109 49.3381H53.7715V46.3076C53.7715 45.491 53.1072 44.8262 52.29 44.8262H46.8109V49.3381Z" fill="#FFC303"/>
<path d="M50.682 21.8851C46.9846 21.8851 43.9764 18.8766 43.9764 15.1793V1.52185C43.9764 1.23767 44.2072 1.0072 44.4915 1.0072C44.7757 1.0072 45.0065 1.23767 45.0065 1.52185V15.1793C45.0065 18.309 47.5524 20.8553 50.682 20.8553C50.9667 20.8553 51.197 21.0858 51.197 21.3705C51.197 21.6547 50.9667 21.8851 50.682 21.8851Z" fill="#FFC303"/>
<path d="M4.27979 21.8851C3.99561 21.8851 3.76483 21.6547 3.76483 21.3705C3.76483 21.0858 3.99561 20.8553 4.27979 20.8553C7.40942 20.8553 9.95581 18.309 9.95581 15.1793V1.52185C9.95581 1.23767 10.1862 1.0072 10.4707 1.0072C10.7554 1.0072 10.9857 1.23767 10.9857 1.52185V15.1793C10.9857 18.8766 7.9776 21.8851 4.27979 21.8851Z" fill="#FFC303"/>
<path d="M50.42 7.96582H4.02197C3.73773 7.96582 3.50702 7.73486 3.50702 7.45068C3.50702 7.16626 3.73773 6.93579 4.02197 6.93579H50.42C50.7043 6.93579 50.9351 7.16626 50.9351 7.45068C50.9351 7.73486 50.7043 7.96582 50.42 7.96582Z" fill="#FFC303"/>
<path d="M17.8124 7.57922C17.5281 7.57922 17.2974 7.34851 17.2974 7.06433V1.77991C17.2974 1.49573 17.5281 1.26501 17.8124 1.26501C18.0967 1.26501 18.3274 1.49573 18.3274 1.77991V7.06433C18.3274 7.34851 18.0967 7.57922 17.8124 7.57922Z" fill="#FFC303"/>
<path d="M31.0876 7.57922C30.8033 7.57922 30.5726 7.34851 30.5726 7.06433V1.77991C30.5726 1.49573 30.8033 1.26501 31.0876 1.26501C31.3718 1.26501 31.6025 1.49573 31.6025 1.77991V7.06433C31.6025 7.34851 31.3718 7.57922 31.0876 7.57922Z" fill="#FFC303"/>
<path d="M24.5145 7.57922C24.2303 7.57922 23.9996 7.34851 23.9996 7.06433V1.77991C23.9996 1.49573 24.2303 1.26501 24.5145 1.26501C24.7988 1.26501 25.0295 1.49573 25.0295 1.77991V7.06433C25.0295 7.34851 24.7988 7.57922 24.5145 7.57922Z" fill="#FFC303"/>
<path d="M27.7365 30.3915C27.4522 30.3915 27.2215 30.161 27.2215 29.8766V7.96643C27.2215 7.68225 27.4522 7.45154 27.7365 7.45154C28.0211 7.45154 28.2514 7.68225 28.2514 7.96643V29.8766C28.2514 30.161 28.0211 30.3915 27.7365 30.3915Z" fill="#FFC303"/>
<path d="M37.6606 7.57922C37.3763 7.57922 37.1456 7.34851 37.1456 7.06433V1.77991C37.1456 1.49573 37.3763 1.26501 37.6606 1.26501C37.9448 1.26501 38.1755 1.49573 38.1755 1.77991V7.06433C38.1755 7.34851 37.9448 7.57922 37.6606 7.57922Z" fill="#FFC303"/>
<path d="M28.1611 23.5607C27.877 23.5607 27.6462 23.3297 27.6462 23.0455C27.6462 22.7616 27.877 22.5306 28.1611 22.5306C30.0593 22.5306 31.6036 20.9867 31.6036 19.088V7.83752C31.6036 7.55334 31.8343 7.32239 32.1185 7.32239C32.4028 7.32239 32.6335 7.55334 32.6335 7.83752V19.088C32.6335 21.5541 30.6271 23.5607 28.1611 23.5607Z" fill="#FFC303"/>
</svg>
