<svg width="88" height="77" viewBox="0 0 88 77" fill="none" xmlns="http://www.w3.org/2000/svg">
<path d="M10.8126 72.2252H4.80531C3.47704 72.2252 2.3963 71.1447 2.3963 69.8165V66.4264C2.3963 66.1422 2.62701 65.9113 2.91127 65.9113H12.7066C12.9909 65.9113 13.2216 66.1422 13.2216 66.4264V69.8165C13.2216 71.1447 12.1408 72.2252 10.8126 72.2252ZM3.42624 66.9415V69.8165C3.42624 70.5768 4.04488 71.1954 4.80531 71.1954H10.8126C11.573 71.1954 12.1916 70.5768 12.1916 69.8165V66.9415H3.42624Z" fill="#FFC303"/>
<path d="M83.1162 72.2252H77.1089C75.7807 72.2252 74.6999 71.1447 74.6999 69.8165V66.4264C74.6999 66.1422 74.9303 65.9113 75.2149 65.9113H85.0102C85.2945 65.9113 85.5252 66.1422 85.5252 66.4264V69.8165C85.5252 71.1447 84.4444 72.2252 83.1162 72.2252ZM75.7298 66.9415V69.8165C75.7298 70.5768 76.3485 71.1954 77.1089 71.1954H83.1162C83.8766 71.1954 84.4953 70.5768 84.4953 69.8165V66.9415H75.7298Z" fill="#FFC303"/>
<path d="M58.8963 76.8873H29.0231C27.4175 76.8873 26.1111 75.5814 26.1111 73.9755V70.808C26.1111 70.5238 26.3415 70.2928 26.6261 70.2928H61.2933C61.5779 70.2928 61.8082 70.5238 61.8082 70.808V73.9755C61.8082 75.5814 60.502 76.8873 58.8963 76.8873ZM27.1411 71.3229V73.9755C27.1411 75.0131 27.9853 75.8573 29.0231 75.8573H58.8963C59.9341 75.8573 60.7783 75.0131 60.7783 73.9755V71.3229H27.1411Z" fill="#FFC303"/>
<path d="M12.7059 66.9409C12.457 66.9409 12.238 66.7597 12.1978 66.5063C12.1535 66.2265 12.344 65.9633 12.6232 65.9174C12.711 65.9028 14.6404 65.5361 14.6404 62.9462C14.6404 59.7016 17.9709 42.7333 21.6701 39.8564C21.8946 39.6816 22.2176 39.7226 22.3927 39.9467C22.5671 40.1713 22.5266 40.4946 22.3021 40.6689C20.9292 41.7373 19.2751 45.7163 17.7646 51.5878C16.5304 56.3837 15.6704 61.4228 15.6704 62.9462C15.6704 65.7412 13.7839 66.7773 12.7869 66.9345C12.7595 66.9389 12.7323 66.9409 12.7059 66.9409Z" fill="#FFC303"/>
<path d="M26.6264 71.3228C26.5842 71.3228 26.5409 71.3179 26.498 71.3069C22.0714 70.1717 21.8644 65.8252 21.6642 61.6219C21.6189 60.6646 21.5715 59.6756 21.474 58.7471C20.9652 53.9139 21.3257 40.0831 21.988 30.9461C22.6111 22.3472 17.999 15.49 17.9524 15.4212C17.792 15.1866 17.8521 14.8665 18.0869 14.7059C18.3211 14.5452 18.6417 14.605 18.8024 14.8396C19.0012 15.1299 23.6654 22.0511 23.0155 31.0206C22.3563 40.1146 21.9948 53.8582 22.4981 58.6392C22.5991 59.597 22.6468 60.6014 22.6931 61.5728C22.8836 65.5789 23.0639 69.3628 26.7538 70.3091C27.0291 70.3797 27.1953 70.6604 27.1249 70.9356C27.0652 71.1683 26.8558 71.3228 26.6264 71.3228Z" fill="#FFC303"/>
<path d="M84.8746 66.9414C84.6631 66.9414 84.4651 66.8103 84.3899 66.5998C84.2948 66.333 84.4321 66.0405 84.6968 65.9428C84.7634 65.9172 86.1432 65.3559 86.0357 63.0996L86.0275 62.923C85.6666 55.2219 84.3408 40.8623 79.5162 31.2136C74.77 21.7211 72.4018 19.1279 70.8342 17.4118C70.4896 17.0346 70.1916 16.708 69.9087 16.3547C68.3607 14.4191 64.0254 11.716 60.5401 10.9951C56.7788 10.217 54.1888 11.0869 51.2298 12.7441L50.9456 12.9033C47.841 14.6433 46.2824 15.5168 44.1473 15.5168H43.6385C41.5038 15.5168 39.9452 14.6433 36.8406 12.9038L36.556 12.7441C33.5974 11.0876 31.0078 10.217 27.2458 10.9951C23.7605 11.716 19.4255 14.4191 17.8775 16.3544C17.5946 16.708 17.2967 17.0346 16.9516 17.4118C15.3844 19.1279 13.0163 21.7207 8.26964 31.2136C3.44544 40.8623 2.11957 55.2219 1.75876 62.923L1.75052 63.0996C1.64272 65.3625 3.03072 65.9206 3.08977 65.9428C3.35343 66.0439 3.48938 66.3396 3.39154 66.6037C3.29369 66.8684 3.0036 67.0051 2.73822 66.9113C2.64999 66.8793 0.576049 66.1032 0.72161 63.0507L0.72985 62.8747C1.09444 55.0925 2.4392 40.5708 7.3482 30.7531C12.159 21.132 14.5855 18.4753 16.1915 16.7172C16.5239 16.353 16.8112 16.0383 17.0732 15.7109C18.7338 13.635 23.2342 10.7734 27.0371 9.98628C31.0988 9.14522 33.9812 10.1218 37.0593 11.8457L37.3439 12.0053C40.2926 13.6572 41.7727 14.4868 43.6385 14.4868H44.1473C46.0136 14.4868 47.4936 13.6572 50.4423 12.0051L50.7265 11.8457C53.8047 10.1218 56.6874 9.14571 60.7488 9.98628C64.5517 10.7734 69.0521 13.635 70.7131 15.7114C70.9747 16.0385 71.262 16.353 71.5947 16.7177C73.2007 18.4753 75.6272 21.1323 80.4377 30.7531C85.3467 40.5708 86.6914 55.0925 87.0564 62.8747L87.0646 63.0507C87.2098 66.1032 85.1362 66.8793 85.048 66.9113C84.9907 66.9311 84.9323 66.9414 84.8746 66.9414Z" fill="#FFC303"/>
<path d="M75.08 66.941C75.0532 66.941 75.0264 66.9391 74.9989 66.9345C74.002 66.7772 72.1158 65.7413 72.1158 62.9462C72.1158 61.423 71.2555 56.3839 70.0213 51.5878C68.5107 45.7164 66.8566 41.7372 65.4837 40.6688C65.2592 40.4948 65.2187 40.171 65.3934 39.9467C65.5678 39.722 65.8909 39.6813 66.1158 39.8561C69.8149 42.733 73.1457 59.7018 73.1457 62.9462C73.1457 65.5399 75.081 65.9034 75.1634 65.9176C75.4421 65.9662 75.6317 66.2304 75.5857 66.5094C75.5438 66.7614 75.3275 66.941 75.08 66.941Z" fill="#FFC303"/>
<path d="M61.1597 71.3231C60.93 71.3231 60.721 71.1685 60.6612 70.9356C60.5905 70.6605 60.7567 70.3802 61.032 70.3092C64.7223 69.3629 64.9021 65.5789 65.093 61.5726C65.1391 60.6012 65.1868 59.597 65.2877 58.6392C65.791 53.8597 65.4299 40.1161 64.7706 31.0206C64.1208 22.0514 68.7847 15.1302 68.9838 14.8397C69.1441 14.6048 69.4647 14.5448 69.6992 14.7059C69.9341 14.8665 69.9938 15.1866 69.8335 15.4212C69.7868 15.4903 65.1748 22.3475 65.7979 30.9464C66.4601 40.0846 66.8206 53.9159 66.3118 58.7474C66.2143 59.6759 66.1669 60.6649 66.1216 61.6217C65.9218 65.8253 65.7148 70.172 61.2878 71.3075C61.2449 71.3182 61.202 71.3231 61.1597 71.3231Z" fill="#FFC303"/>
<path d="M41.4475 71.2374C41.1629 71.2374 40.9326 71.0067 40.9326 70.7225V14.7438C40.9326 14.4596 41.1629 14.2289 41.4475 14.2289C41.7321 14.2289 41.9625 14.4596 41.9625 14.7438V70.7225C41.9625 71.0067 41.7321 71.2374 41.4475 71.2374Z" fill="#FFC303"/>
<path d="M46.8605 71.2373C46.5759 71.2373 46.3455 71.0066 46.3455 70.7224V14.4863C46.3455 14.2024 46.5759 13.9714 46.8605 13.9714C47.1451 13.9714 47.3754 14.2024 47.3754 14.4863V70.7224C47.3754 71.0066 47.1451 71.2373 46.8605 71.2373Z" fill="#FFC303"/>
<path d="M43.2678 15.4351C43.0563 15.4351 42.8579 15.3037 42.7827 15.0933C42.2674 13.6463 41.5389 12.4932 40.8945 11.5559C40.2611 10.635 38.2582 8.49344 35.7874 6.61527C32.9863 4.48685 30.59 3.48123 29.0437 3.77909C25.5145 4.4617 25.5931 10.8037 25.5942 10.868C25.5997 11.1521 25.3734 11.387 25.0892 11.3929H25.0792C24.7994 11.3929 24.5697 11.1685 24.5646 10.8872C24.5591 10.5909 24.4777 3.61331 28.8481 2.76786C33.2671 1.91165 40.4115 9.03568 41.7432 10.9724C42.4253 11.9644 43.1974 13.1888 43.7529 14.7471C43.8483 15.0152 43.7086 15.3096 43.4408 15.4056C43.3838 15.4256 43.3252 15.4351 43.2678 15.4351Z" fill="#FFC303"/>
<path d="M44.7103 15.455C44.6533 15.455 44.5953 15.4458 44.5383 15.4257C44.2702 15.3305 44.1301 15.0361 44.2252 14.7683C44.7807 13.2011 45.5566 11.9699 46.2422 10.9721C47.5742 9.03511 54.7213 1.91377 59.1376 2.76777C63.5076 3.61348 63.4266 10.5903 63.4208 10.8872C63.4156 11.1713 63.1736 11.3881 62.8969 11.3923C62.6123 11.3869 62.386 11.1525 62.3912 10.8684C62.3922 10.8042 62.4643 4.46064 58.9419 3.77876C57.395 3.48066 54.9993 4.48628 52.1979 6.61519C49.7275 8.49312 47.7243 10.6347 47.0908 11.5559C46.4434 12.4985 45.7114 13.6577 45.1957 15.1123C45.1209 15.3232 44.9225 15.455 44.7103 15.455Z" fill="#FFC303"/>
<path d="M56.2047 4.05469C55.9201 4.05469 55.6898 3.82373 55.6898 3.53979C55.6898 2.57495 54.9053 1.79053 53.9409 1.79053H33.5939C32.6296 1.79053 31.8451 2.57495 31.8451 3.53979C31.8451 3.82373 31.6148 4.05469 31.3301 4.05469C31.0459 4.05469 30.8152 3.82373 30.8152 3.53979C30.8152 2.00684 32.0618 0.760498 33.5939 0.760498H53.9409C55.4731 0.760498 56.7197 2.00684 56.7197 3.53979C56.7197 3.82373 56.489 4.05469 56.2047 4.05469Z" fill="#FFC303"/>
<path d="M36.2601 19.9956C35.9755 19.9956 35.7451 19.7651 35.7451 19.4805V11.989C35.7451 11.7048 35.9755 11.4739 36.2601 11.4739C36.5444 11.4739 36.7751 11.7048 36.7751 11.989V19.4805C36.7751 19.7651 36.5444 19.9956 36.2601 19.9956Z" fill="#FFC303"/>
<path d="M51.6775 19.9956C51.3932 19.9956 51.1625 19.7651 51.1625 19.4805V11.989C51.1625 11.7048 51.3932 11.4739 51.6775 11.4739C51.9621 11.4739 52.1925 11.7048 52.1925 11.989V19.4805C52.1925 19.7651 51.9621 19.9956 51.6775 19.9956Z" fill="#FFC303"/>
</svg>
