<svg width="179" height="51" viewBox="0 0 179 51" fill="none" xmlns="http://www.w3.org/2000/svg">
<path d="M24.6321 5.24915L34.0783 34.6491H21.8955L20.791 29.926H12.2722L11.0798 34.6491H0L9.44695 5.24915H24.6321ZM16.5092 12.1358L16.1118 13.9012L15.538 16.329L15.3616 17.08L14.0375 22.7297H19.0703L17.5691 16.5054L17.4813 15.9762L17.0838 13.9459C16.9067 13.151 16.8188 12.7536 16.6864 11.827H16.5531L16.5092 12.1358Z" fill="white"/>
<path d="M63.6307 23.8342V23.9659C63.6307 31.029 58.2453 35.3993 49.5493 35.3993C40.0145 35.3993 34.4966 29.7927 34.4966 20.0816C34.4966 10.1494 39.9259 4.58752 49.6379 4.58752C58.5102 4.58752 63.4104 8.73679 63.4544 16.2851H52.5948C52.4184 13.4599 51.5796 12.2683 49.8142 12.2683C47.3865 12.2683 46.5916 14.2109 46.5916 19.9052C46.5916 25.5996 47.4743 27.7624 49.8142 27.7624C51.6243 27.7624 52.5062 26.5269 52.5948 23.8342H63.6307Z" fill="white"/>
<path d="M94.8168 23.8342V23.9659C94.8168 31.029 89.4314 35.3993 80.7353 35.3993C71.1998 35.3993 65.6826 29.7927 65.6826 20.0816C65.6826 10.1494 71.112 4.58752 80.8231 4.58752C89.6963 4.58752 94.5965 8.73679 94.6404 16.2851H83.7809C83.6045 13.4599 82.7657 12.2683 81.0003 12.2683C78.5725 12.2683 77.7776 14.2109 77.7776 19.9052C77.7776 25.5996 78.6603 27.7624 81.0003 27.7624C82.8104 27.7624 83.6923 26.5269 83.7809 23.8342H94.8168Z" fill="white"/>
<path d="M110.178 5.24915V34.6491H98.4369V5.24915H110.178Z" fill="white"/>
<path d="M162.752 5.24915L166.77 16.2412C167.962 19.5078 168.094 19.9052 168.889 22.9068H169.065C168.845 19.5517 168.8 18.5804 168.8 15.0049V5.24915H178.379V34.6491H164.297L160.016 23.084C159.442 21.5381 158.603 18.934 157.985 16.6386H157.809C157.897 18.3601 157.985 21.0529 157.985 22.9068V34.6491H148.406V5.24915H162.752Z" fill="white"/>
<path d="M143.575 18.9793C143.575 26.7533 139.098 36.4536 129.984 36.4536C120.87 36.4536 116.393 26.7533 116.393 18.9793C116.393 11.2054 122.478 8.30078 129.984 8.30078C137.49 8.30078 143.575 11.2054 143.575 18.9793Z" fill="white"/>
<path d="M116.86 19.9506C115.405 19.5863 114.452 20.3642 114.452 21.8916C114.452 23.9143 116.409 28.8692 118.466 25.7751C120.523 22.6803 116.86 19.9506 116.86 19.9506Z" fill="white"/>
<path d="M142.888 19.9506C144.476 19.5863 145.517 20.3642 145.517 21.8916C145.517 23.9143 143.381 28.8692 141.135 25.7751C138.89 22.6803 142.888 19.9506 142.888 19.9506Z" fill="white"/>
<path d="M141.633 5.59192V4.01831C141.633 3.48145 141.198 3.04626 140.661 3.04626H139.694C139.445 3.04626 139.223 3.14719 139.051 3.30048C137.09 2.06268 134.679 1.38953 131.926 1.18381V1.10605C131.926 0.569214 131.491 0.134033 130.953 0.134033H129.015C128.478 0.134033 128.042 0.569214 128.042 1.10605V1.18381C125.273 1.39178 122.87 2.07269 120.922 3.30353C120.749 3.14795 120.526 3.04626 120.275 3.04626H119.307C118.77 3.04626 118.335 3.48145 118.335 4.01831V5.59344C116.467 7.91104 115.423 11.2 115.423 15.6666V17.6076H144.546V15.6666C144.546 11.173 143.49 7.89569 141.633 5.59192Z" fill="#E2E2E2"/>
<path d="M129.984 13.7249C123.769 13.7249 114.468 15.4633 114.468 17.6076H145.501C145.501 15.4633 136.2 13.7249 129.984 13.7249Z" fill="#D3D0D0"/>
<path d="M24.9687 49V41H27.6719C28.2969 41 28.8099 41.1068 29.2109 41.3203C29.612 41.5312 29.9088 41.8216 30.1016 42.1914C30.2943 42.5612 30.3906 42.9818 30.3906 43.4531C30.3906 43.9245 30.2943 44.3424 30.1016 44.707C29.9088 45.0716 29.6133 45.3581 29.2148 45.5664C28.8164 45.7721 28.3073 45.875 27.6875 45.875H25.5V45H27.6562C28.0833 45 28.4271 44.9375 28.6875 44.8125C28.9505 44.6875 29.1406 44.5104 29.2578 44.2812C29.3776 44.0495 29.4375 43.7734 29.4375 43.4531C29.4375 43.1328 29.3776 42.8529 29.2578 42.6133C29.138 42.3737 28.9466 42.1888 28.6836 42.0586C28.4206 41.9258 28.0729 41.8594 27.6406 41.8594H25.9375V49H24.9687ZM28.7344 45.4062L30.7031 49H29.5781L27.6406 45.4062H28.7344ZM41.1749 45C41.1749 45.8437 41.0225 46.5729 40.7178 47.1875C40.4132 47.8021 39.9952 48.276 39.4639 48.6094C38.9327 48.9427 38.3259 49.1094 37.6436 49.1094C36.9613 49.1094 36.3546 48.9427 35.8233 48.6094C35.2921 48.276 34.8741 47.8021 34.5694 47.1875C34.2647 46.5729 34.1124 45.8437 34.1124 45C34.1124 44.1562 34.2647 43.4271 34.5694 42.8125C34.8741 42.1979 35.2921 41.724 35.8233 41.3906C36.3546 41.0573 36.9613 40.8906 37.6436 40.8906C38.3259 40.8906 38.9327 41.0573 39.4639 41.3906C39.9952 41.724 40.4132 42.1979 40.7178 42.8125C41.0225 43.4271 41.1749 44.1562 41.1749 45ZM40.2374 45C40.2374 44.3073 40.1215 43.7227 39.8897 43.2461C39.6606 42.7695 39.3494 42.4089 38.9561 42.1641C38.5655 41.9193 38.128 41.7969 37.6436 41.7969C37.1593 41.7969 36.7204 41.9193 36.3272 42.1641C35.9366 42.4089 35.6254 42.7695 35.3936 43.2461C35.1645 43.7227 35.0499 44.3073 35.0499 45C35.0499 45.6927 35.1645 46.2773 35.3936 46.7539C35.6254 47.2305 35.9366 47.5911 36.3272 47.8359C36.7204 48.0807 37.1593 48.2031 37.6436 48.2031C38.128 48.2031 38.5655 48.0807 38.9561 47.8359C39.3494 47.5911 39.6606 47.2305 39.8897 46.7539C40.1215 46.2773 40.2374 45.6927 40.2374 45ZM45.2238 49V41H47.9269C48.5545 41 49.0675 41.1133 49.466 41.3398C49.867 41.5638 50.1639 41.8672 50.3566 42.25C50.5493 42.6328 50.6457 43.0599 50.6457 43.5312C50.6457 44.0026 50.5493 44.431 50.3566 44.8164C50.1665 45.2018 49.8722 45.5091 49.4738 45.7383C49.0753 45.9648 48.5649 46.0781 47.9425 46.0781H46.005V45.2188H47.9113C48.341 45.2188 48.686 45.1445 48.9464 44.9961C49.2069 44.8477 49.3957 44.6471 49.5128 44.3945C49.6326 44.1393 49.6925 43.8516 49.6925 43.5312C49.6925 43.2109 49.6326 42.9245 49.5128 42.6719C49.3957 42.4193 49.2056 42.2214 48.9425 42.0781C48.6795 41.9323 48.3306 41.8594 47.8957 41.8594H46.1925V49H45.2238ZM54.1379 49H53.1223L56.0598 41H57.0598L59.9973 49H58.9817L56.591 42.2656H56.5285L54.1379 49ZM54.5129 45.875H58.6067V46.7344H54.5129V45.875ZM71.6459 49H69.1771V41H71.7553C72.5313 41 73.1954 41.1602 73.7475 41.4805C74.2995 41.7982 74.7227 42.2552 75.017 42.8516C75.3113 43.4453 75.4584 44.1562 75.4584 44.9844C75.4584 45.8177 75.31 46.5352 75.0131 47.1367C74.7162 47.7357 74.2839 48.1966 73.7162 48.5195C73.1485 48.8398 72.4584 49 71.6459 49ZM70.1459 48.1406H71.5834C72.2448 48.1406 72.793 48.013 73.2279 47.7578C73.6628 47.5026 73.987 47.1393 74.2006 46.668C74.4141 46.1966 74.5209 45.6354 74.5209 44.9844C74.5209 44.3385 74.4154 43.7826 74.2045 43.3164C73.9935 42.8477 73.6784 42.4883 73.2592 42.2383C72.8399 41.9857 72.3178 41.8594 71.6928 41.8594H70.1459V48.1406ZM79.5034 49V41H84.3315V41.8594H80.4721V44.5625H84.0815V45.4219H80.4721V48.1406H84.394V49H79.5034ZM93.5739 41.8594V41H99.5739V41.8594H97.0582V49H96.0895V41.8594H93.5739ZM103.489 49V41H106.192C106.817 41 107.33 41.1068 107.731 41.3203C108.132 41.5312 108.429 41.8216 108.622 42.1914C108.814 42.5612 108.911 42.9818 108.911 43.4531C108.911 43.9245 108.814 44.3424 108.622 44.707C108.429 45.0716 108.134 45.3581 107.735 45.5664C107.337 45.7721 106.828 45.875 106.208 45.875H104.02V45H106.176C106.604 45 106.947 44.9375 107.208 44.8125C107.471 44.6875 107.661 44.5104 107.778 44.2812C107.898 44.0495 107.958 43.7734 107.958 43.4531C107.958 43.1328 107.898 42.8529 107.778 42.6133C107.658 42.3737 107.467 42.1888 107.204 42.0586C106.941 41.9258 106.593 41.8594 106.161 41.8594H104.458V49H103.489ZM107.255 45.4062L109.223 49H108.098L106.161 45.4062H107.255ZM113.273 49H112.258L115.195 41H116.195L119.133 49H118.117L115.726 42.2656H115.664L113.273 49ZM113.648 45.875H117.742V46.7344H113.648V45.875ZM122.799 49V41H125.596C126.153 41 126.613 41.0964 126.974 41.2891C127.336 41.4792 127.606 41.7357 127.783 42.0586C127.96 42.3789 128.049 42.7344 128.049 43.125C128.049 43.4687 127.988 43.7526 127.865 43.9766C127.745 44.2005 127.586 44.3776 127.389 44.5078C127.193 44.638 126.981 44.7344 126.752 44.7969V44.875C126.997 44.8906 127.243 44.9766 127.49 45.1328C127.738 45.2891 127.945 45.513 128.111 45.8047C128.278 46.0964 128.361 46.4531 128.361 46.875C128.361 47.276 128.27 47.6367 128.088 47.957C127.905 48.2773 127.618 48.5312 127.224 48.7187C126.831 48.9062 126.32 49 125.689 49H122.799ZM123.767 48.1406H125.689C126.322 48.1406 126.771 48.0182 127.037 47.7734C127.305 47.526 127.439 47.2266 127.439 46.875C127.439 46.6042 127.37 46.3542 127.232 46.125C127.094 45.8932 126.898 45.7083 126.642 45.5703C126.387 45.4297 126.085 45.3594 125.736 45.3594H123.767V48.1406ZM123.767 44.5156H125.564C125.856 44.5156 126.119 44.4583 126.353 44.3437C126.59 44.2292 126.778 44.0677 126.916 43.8594C127.057 43.651 127.127 43.4062 127.127 43.125C127.127 42.7734 127.004 42.4753 126.76 42.2305C126.515 41.9831 126.127 41.8594 125.596 41.8594H123.767V44.5156ZM132.701 49H131.686L134.623 41H135.623L138.561 49H137.545L135.154 42.2656H135.092L132.701 49ZM133.076 45.875H137.17V46.7344H133.076V45.875ZM145.289 41H146.258V46.7187C146.258 47.2292 146.164 47.6628 145.977 48.0195C145.789 48.3763 145.525 48.6471 145.184 48.832C144.842 49.0169 144.44 49.1094 143.977 49.1094C143.539 49.1094 143.15 49.0299 142.809 48.8711C142.467 48.7096 142.199 48.4805 142.004 48.1836C141.809 47.8867 141.711 47.5339 141.711 47.125H142.664C142.664 47.3516 142.72 47.5495 142.832 47.7187C142.947 47.8854 143.103 48.0156 143.301 48.1094C143.499 48.2031 143.724 48.25 143.977 48.25C144.255 48.25 144.492 48.1914 144.688 48.0742C144.883 47.957 145.031 47.7852 145.133 47.5586C145.237 47.3294 145.289 47.0495 145.289 46.7187V41ZM157.369 45C157.369 45.8437 157.217 46.5729 156.912 47.1875C156.608 47.8021 156.19 48.276 155.658 48.6094C155.127 48.9427 154.52 49.1094 153.838 49.1094C153.156 49.1094 152.549 48.9427 152.018 48.6094C151.486 48.276 151.068 47.8021 150.764 47.1875C150.459 46.5729 150.307 45.8437 150.307 45C150.307 44.1562 150.459 43.4271 150.764 42.8125C151.068 42.1979 151.486 41.724 152.018 41.3906C152.549 41.0573 153.156 40.8906 153.838 40.8906C154.52 40.8906 155.127 41.0573 155.658 41.3906C156.19 41.724 156.608 42.1979 156.912 42.8125C157.217 43.4271 157.369 44.1562 157.369 45ZM156.432 45C156.432 44.3073 156.316 43.7227 156.084 43.2461C155.855 42.7695 155.544 42.4089 155.151 42.1641C154.76 41.9193 154.322 41.7969 153.838 41.7969C153.354 41.7969 152.915 41.9193 152.522 42.1641C152.131 42.4089 151.82 42.7695 151.588 43.2461C151.359 43.7227 151.244 44.3073 151.244 45C151.244 45.6927 151.359 46.2773 151.588 46.7539C151.82 47.2305 152.131 47.5911 152.522 47.8359C152.915 48.0807 153.354 48.2031 153.838 48.2031C154.322 48.2031 154.76 48.0807 155.151 47.8359C155.544 47.5911 155.855 47.2305 156.084 46.7539C156.316 46.2773 156.432 45.6927 156.432 45Z" fill="white"/>
</svg>
