<svg width="54" height="55" viewBox="0 0 54 55" fill="none" xmlns="http://www.w3.org/2000/svg">
<path d="M3.04393 30.5673C3.86467 31.3879 4.10924 32.6227 3.66337 33.6944L3.098 35.0534C2.49003 36.5146 3.18178 38.1921 4.643 38.8L6.0479 39.3846C7.11648 39.8292 7.81277 40.8731 7.81277 42.0303V43.552C7.81277 44.6757 8.46553 45.6382 9.40696 46.108C9.74435 46.2761 10.1168 46.3782 10.5136 46.4011C10.5693 46.4043 10.622 46.4178 10.6785 46.4178H11.7306H12.1504C13.3111 46.4178 14.3572 47.1179 14.7997 48.191L15.3608 49.5518C15.8169 50.6575 16.885 51.3258 18.0112 51.3258C18.3752 51.3258 18.7452 51.256 19.1027 51.1086L20.5093 50.5285C20.8627 50.3829 21.2335 50.312 21.6012 50.312C22.3471 50.312 23.08 50.6033 23.6282 51.1515L23.8085 51.3317L24.7042 52.2274C25.2637 52.787 25.9971 53.0668 26.7305 53.0668C27.464 53.0668 28.1973 52.787 28.7569 52.2274L29.7977 51.1866C29.8277 51.1567 29.8636 51.1357 29.8946 51.1073C30.3243 50.714 30.8504 50.4703 31.4063 50.388C31.5451 50.3674 31.684 50.3471 31.8248 50.3471C32.0841 50.3471 32.3427 50.3959 32.5979 50.4677C32.7075 50.4985 32.8181 50.5226 32.925 50.5671L34.2839 51.1325C34.6437 51.2822 35.0168 51.3532 35.3836 51.3532C36.5066 51.3532 37.5723 50.689 38.0306 49.5875L38.6151 48.1827C39.0598 47.1141 40.1035 46.4178 41.261 46.4178H41.9467H42.7826C44.3653 46.4178 45.6483 45.1348 45.6483 43.552V42.0802C45.6483 40.9194 46.3485 39.8732 47.4216 39.4308L48.7823 38.8696C50.2455 38.2663 50.9425 36.591 50.3391 35.1278L49.7591 33.7212C49.3179 32.6511 49.5636 31.4208 50.382 30.6024L51.4579 29.5264C52.5771 28.4073 52.5771 26.5927 51.4579 25.4736L50.4172 24.4328C49.5964 23.612 49.3518 22.3772 49.7977 21.3056L50.3631 19.9467C50.9711 18.4854 50.2793 16.8079 48.8181 16.2L47.4132 15.6155C46.3445 15.1708 45.6483 14.127 45.6483 12.9695V11.4479C45.6483 9.86523 44.3653 8.58215 42.7826 8.58215H41.3107C40.15 8.58215 39.1039 7.88202 38.6614 6.8089L38.1002 5.44812C37.6443 4.34235 36.576 3.67426 35.4498 3.67426C35.0858 3.67426 34.7159 3.74402 34.3584 3.89136L32.9518 4.47144C32.5984 4.61713 32.2276 4.68799 31.8598 4.68799C31.114 4.68799 30.381 4.39667 29.8329 3.84851L28.7569 2.77258C28.1973 2.21301 27.464 1.93323 26.7305 1.93323C25.9971 1.93323 25.2637 2.21301 24.7042 2.77258L23.6633 3.81335C23.1151 4.36157 22.382 4.65283 21.6363 4.65283C21.2657 4.65283 20.892 4.58087 20.5361 4.43292L19.1771 3.86743C18.8174 3.71783 18.4443 3.64691 18.0775 3.64691C16.9545 3.64679 15.8887 4.31104 15.4304 5.41241L14.8459 6.81732C14.4013 7.88599 13.3575 8.58215 12.2001 8.58215H10.6785C9.09575 8.58215 7.81277 9.86523 7.81277 11.4479V12.9199C7.81277 14.0806 7.11253 15.1266 6.03947 15.5692L4.67875 16.1302C3.21551 16.7337 2.51858 18.4089 3.12189 19.8721L3.70204 21.2788C4.14324 22.3489 3.89744 23.5792 3.07907 24.3978L2.0031 25.4736C0.883978 26.5927 0.883978 28.4073 2.0031 29.5264L3.04393 30.5673ZM26.7305 10.377C36.1874 10.377 43.8537 18.0432 43.8537 27.5C43.8537 34.2014 40.0016 40 34.393 42.8123C33.949 43.0349 33.4937 43.238 33.0286 43.4222C32.6014 43.5913 32.1672 43.7463 31.7239 43.8813C31.6024 43.9183 31.4792 43.9512 31.3566 43.9855C31.0293 44.0773 30.6987 44.1607 30.3637 44.2332C29.1923 44.4863 27.9776 44.6231 26.7305 44.6231C25.9732 44.6231 25.2289 44.5687 24.4975 44.4733C21.006 44.0182 17.8453 42.5142 15.3432 40.2839C15.2108 40.1658 15.0815 40.0446 14.9528 39.9225C14.6783 39.6623 14.4111 39.3943 14.1543 39.1166C13.8889 38.8294 13.634 38.5327 13.3887 38.2278C11.025 35.2921 9.60745 31.5624 9.60745 27.5C9.60745 18.0432 17.2737 10.377 26.7305 10.377Z" stroke="white" stroke-width="2"/>
<path d="M18.9436 29.3571L24.1395 34.553L35.2956 23.397" stroke="white" stroke-width="2" stroke-linecap="round" stroke-linejoin="round"/>
</svg>
