<svg width="54" height="55" viewBox="0 0 42 43" fill="none" xmlns="http://www.w3.org/2000/svg">
<path d="M12.9291 12.2375C15.3513 12.2375 17.247 10.8684 17.247 9.11881C17.247 7.36918 15.3513 6.00012 12.9291 6.00012C10.5094 6.00012 8.61133 7.36918 8.61133 9.11881C8.61133 10.8684 10.5094 12.2375 12.9291 12.2375ZM12.9291 7.71624C14.4179 7.71624 15.5308 8.45821 15.5308 9.11881C15.5308 9.7818 14.4179 10.5214 12.9291 10.5214C11.4404 10.5214 10.3298 9.7818 10.3298 9.11881C10.3298 8.45821 11.4404 7.71624 12.9291 7.71624Z" fill="white"/>
<path d="M36.8112 16H25.6313V9.11881C25.6313 4.37736 19.9325 0.521484 12.9292 0.521484C5.92589 0.521484 0.227051 4.37736 0.227051 9.11881V26.5935C0.227051 30.4948 4.12601 33.8936 9.60943 34.8893V41.9548C9.60943 42.4311 9.99238 42.814 10.4663 42.814H36.8112C39.1807 42.814 41.1074 40.8873 41.1074 38.5154V20.2963C41.1074 17.9268 39.1807 16 36.8112 16ZM23.9128 16H20.5141C21.8879 15.3035 23.0487 14.4251 23.9128 13.4175V16ZM12.9292 2.2376C18.987 2.2376 23.9128 5.32517 23.9128 9.11881C23.9128 12.9125 18.987 16 12.9292 16C6.8737 16 1.94555 12.9125 1.94555 9.11881C1.94555 5.32517 6.8737 2.2376 12.9292 2.2376ZM39.3913 38.5154C39.3913 39.9395 38.2329 41.0979 36.8112 41.0979H35.7724V37.187C35.7724 36.7131 35.3894 36.3277 34.9156 36.3277C34.4416 36.3277 34.0563 36.7131 34.0563 37.187V41.0979H30.849V37.187C30.849 36.7131 30.4637 36.3277 29.9898 36.3277C29.5159 36.3277 29.1305 36.7131 29.1305 37.187V41.0979H25.9233V37.187C25.9233 36.7131 25.5403 36.3277 25.0664 36.3277C24.5925 36.3277 24.2072 36.7131 24.2072 37.187V41.0979H20.9999V37.187C20.9999 36.7131 20.6146 36.3277 20.1407 36.3277C19.6668 36.3277 19.2814 36.7131 19.2814 37.187V41.0979H16.0742V37.187C16.0742 36.7131 15.6912 36.3277 15.2149 36.3277C14.741 36.3277 14.3581 36.7131 14.3581 37.187V41.0979H11.3256V34.4967C11.3543 34.4297 11.383 34.3627 11.395 34.2885C11.4141 34.1329 11.3806 33.9893 11.3256 33.8553V24.595H36.8112C37.7781 24.595 38.6733 24.2742 39.3913 23.7333V38.5154ZM36.8112 22.8788H10.4663C9.99238 22.8788 9.60943 23.2618 9.60943 23.7381V33.1444C5.10972 32.2421 1.94555 29.5901 1.94555 26.5935V13.4175C4.14516 15.9833 8.24037 17.7161 12.9292 17.7161H36.8112C38.2329 17.7161 39.3913 18.8746 39.3913 20.2963C39.3913 21.7204 38.2329 22.8788 36.8112 22.8788Z" fill="white"/>
</svg>
