<svg width="54" height="55" viewBox="0 0 34 48" fill="none" xmlns="http://www.w3.org/2000/svg">
<path d="M9.04573 34.2859C6.66039 33.8576 4.30315 35.749 3.79986 38.5112C3.5611 39.8267 3.76943 41.1493 4.38976 42.2331C5.0335 43.3614 6.04007 44.0988 7.2222 44.3142C7.45628 44.3563 7.68803 44.3773 7.92211 44.3773C8.87016 44.3773 9.80416 44.0286 10.6071 43.3638C11.5692 42.5656 12.2293 41.4022 12.4681 40.0866C12.9713 37.322 11.4357 34.719 9.04573 34.2859ZM10.9676 39.815C10.792 40.7771 10.3192 41.6198 9.63328 42.1887C8.98721 42.7247 8.22642 42.9494 7.49608 42.8137C6.76339 42.6802 6.13136 42.205 5.71468 41.477C5.27226 40.7022 5.12479 39.7471 5.30036 38.785C5.62105 37.0201 6.9413 35.749 8.35517 35.749C8.49328 35.749 8.63374 35.7607 8.77418 35.7864C10.3355 36.0697 11.321 37.8768 10.9676 39.815Z" fill="white"/>
<path d="M25.1578 34.2508C23.9757 34.4662 22.9691 35.2036 22.3254 36.3319C21.7074 37.4157 21.4967 38.7383 21.7355 40.0515C21.9742 41.367 22.6367 42.5304 23.5988 43.3287C24.4017 43.9935 25.3334 44.3423 26.2838 44.3423C26.5155 44.3423 26.7496 44.3212 26.9813 44.279C28.1635 44.0637 29.17 43.3263 29.8138 42.198C30.4341 41.1142 30.6448 39.7916 30.4037 38.4761C29.9027 35.7139 27.5502 33.8154 25.1578 34.2508ZM28.4912 41.4396C28.0745 42.1699 27.4401 42.6451 26.7098 42.7786C25.9748 42.912 25.2187 42.6896 24.5702 42.1536C23.8867 41.5847 23.4115 40.742 23.236 39.7799C23.0627 38.8178 23.2079 37.8628 23.6503 37.088C24.067 36.3599 24.699 35.8847 25.4317 35.7513C25.5721 35.7256 25.7102 35.7139 25.8507 35.7139C27.2622 35.7139 28.5825 36.9873 28.9032 38.75C29.0787 39.7121 28.9313 40.6671 28.4912 41.4396Z" fill="white"/>
<path d="M30.1204 32.4437C28.4655 31.0719 26.4851 30.5148 24.5445 30.8659C24.1489 30.9385 23.758 31.0509 23.3718 31.2054L20.2959 25.8776L28.6574 11.3104C29.3643 10.1845 29.9566 7.38247 27.1335 4.85202C26.9626 4.69987 26.7332 4.62962 26.5062 4.66708C26.2791 4.70453 26.0801 4.8403 25.9654 5.03927L17.1123 20.3672L8.23811 5.00417C8.12341 4.80518 7.92678 4.66943 7.69972 4.63198C7.47031 4.59453 7.24091 4.66475 7.07003 4.8169C4.24695 7.34736 4.84153 10.1494 5.53208 11.2519L13.9287 25.8776L10.8318 31.2405C10.4455 31.086 10.0546 30.9713 9.66135 30.9011C5.70297 30.1871 1.79842 33.3636 0.955705 37.9939C0.550739 40.213 0.901866 42.4391 1.94355 44.2603C3.00864 46.126 4.66596 47.3456 6.60654 47.6991C6.9881 47.767 7.36966 47.8021 7.74887 47.8021C9.31256 47.8021 10.8529 47.2239 12.1825 46.1237C13.7976 44.7847 14.9096 42.8254 15.3145 40.6039C15.6376 38.8225 15.4667 36.9896 14.8323 35.3955L17.1123 31.4231L19.3712 35.3604C18.7392 36.9545 18.5683 38.7874 18.8914 40.5711C19.294 42.7903 20.4059 44.7496 22.0211 46.0862C23.3507 47.1888 24.891 47.767 26.4547 47.767C26.8339 47.767 27.2178 47.7318 27.597 47.6639C29.5399 47.3105 31.1972 46.0909 32.2623 44.2253C33.3017 42.4041 33.6528 40.1779 33.2502 37.9587C32.8452 35.7396 31.7356 33.7803 30.1204 32.4437ZM26.78 6.67789C28.4233 8.68632 27.4097 10.4279 27.3489 10.5263L19.4134 24.3514L17.9925 21.8911L26.78 6.67789ZM13.3225 34.9648C13.1984 35.1778 13.1867 35.4353 13.2873 35.66C13.9217 37.0552 14.1066 38.7148 13.8117 40.3324C13.4746 42.2004 12.55 43.839 11.211 44.9486C9.90949 46.0253 8.37154 46.4725 6.88042 46.1986C5.38929 45.927 4.10416 44.9696 3.26848 43.5042C2.4047 41.9944 2.11677 40.1334 2.4562 38.2677C3.14675 34.4639 6.25775 31.828 9.38982 32.4016C9.85799 32.4858 10.3285 32.6544 10.7873 32.8978C11.1478 33.0898 11.5996 32.9587 11.8056 32.6052L14.8066 27.4085L16.2321 29.8922L13.3225 34.9648ZM30.9374 43.4691C30.0994 44.9345 28.8166 45.8919 27.3255 46.1635C25.832 46.435 24.2964 45.9902 22.9949 44.9135C21.6559 43.8039 20.7313 42.1653 20.3918 40.2973C20.0969 38.6797 20.2842 37.0201 20.9162 35.6249C21.0168 35.4002 21.0051 35.1427 20.8834 34.9297L6.84297 10.4724C6.79381 10.3905 5.78255 8.65121 7.4235 6.64277L22.4003 32.5701C22.604 32.9282 23.0557 33.0546 23.4186 32.8627C23.875 32.6193 24.3456 32.453 24.8161 32.3664C26.3095 32.0925 27.8451 32.5397 29.1467 33.6164C30.4856 34.726 31.4103 36.3646 31.7497 38.2326C32.0891 40.0983 31.8012 41.9593 30.9374 43.4691Z" fill="white"/>
<path d="M16.9133 25.0583C16.5903 25.0583 16.3281 25.3205 16.3281 25.6459C16.3281 25.9666 16.5903 26.2311 16.9133 26.2311C17.2364 26.2311 17.4986 25.9666 17.4986 25.6459C17.4986 25.3205 17.2364 25.0583 16.9133 25.0583Z" fill="white"/>
<path d="M16.3492 17.7267C16.3492 18.148 16.6909 18.4898 17.1123 18.4898C17.5337 18.4898 17.8754 18.148 17.8754 17.7267V15.346C17.8754 14.9247 17.5337 14.5853 17.1123 14.5853C16.6909 14.5853 16.3492 14.9247 16.3492 15.346V17.7267Z" fill="white"/>
<path d="M16.3492 13.1082C16.3492 13.5295 16.6909 13.869 17.1123 13.869C17.5337 13.869 17.8754 13.5295 17.8754 13.1082V10.7275C17.8754 10.3062 17.5337 9.96442 17.1123 9.96442C16.6909 9.96442 16.3492 10.3062 16.3492 10.7275V13.1082Z" fill="white"/>
<path d="M16.3492 8.4897C16.3492 8.91106 16.6909 9.25051 17.1123 9.25051C17.5337 9.25051 17.8754 8.91106 17.8754 8.4897V6.10906C17.8754 5.68771 17.5337 5.34595 17.1123 5.34595C16.6909 5.34595 16.3492 5.68771 16.3492 6.10906V8.4897Z" fill="white"/>
<path d="M17.1123 4.63197C17.5337 4.63197 17.8754 4.2902 17.8754 3.86884V1.49053C17.8754 1.06918 17.5337 0.727417 17.1123 0.727417C16.6909 0.727417 16.3492 1.06918 16.3492 1.49053V3.86884C16.3492 4.2902 16.6909 4.63197 17.1123 4.63197Z" fill="white"/>
</svg>
