<svg width="32" height="29" viewBox="0 0 32 29" fill="none" xmlns="http://www.w3.org/2000/svg">
<path d="M24.9972 0.468018H7.07336C3.53974 0.47225 0.676231 3.33576 0.671997 6.86938V22.2327C0.676229 25.7663 3.53974 28.6298 7.07336 28.634L24.9972 28.634C28.5308 28.6298 31.3943 25.7663 31.3986 22.2327V6.86938C31.3943 3.33576 28.5308 0.472251 24.9972 0.468018ZM7.07336 3.02856H24.9972C26.5655 3.03165 27.9745 3.988 28.5563 5.44444L18.752 15.25C17.2498 16.7462 14.8207 16.7462 13.3185 15.25L3.5142 5.44444C4.09606 3.988 5.505 3.03165 7.07336 3.02856ZM24.9972 26.0735H7.07336C4.95214 26.0735 3.23254 24.3539 3.23254 22.2327V8.78979L11.5082 17.0604C14.0103 19.5561 18.0602 19.5561 20.5623 17.0604L28.838 8.78979V22.2327C28.838 24.3539 27.1184 26.0735 24.9972 26.0735Z" fill="white"/>
</svg>
