<svg width="29" height="29" viewBox="0 0 29 29" fill="none" xmlns="http://www.w3.org/2000/svg">
<path d="M14.7533 3.0053C18.5135 3.0053 18.9594 3.01939 20.444 3.08745C21.9791 3.15787 23.5599 3.5076 24.6783 4.62602C25.8073 5.755 26.1465 7.32056 26.2169 8.8603C26.2849 10.3449 26.299 10.7908 26.299 14.551C26.299 18.3112 26.2849 18.7571 26.2169 20.2417C26.1476 21.7685 25.7897 23.3646 24.6783 24.476C23.5493 25.605 21.9849 25.9441 20.444 26.0146C18.9594 26.0826 18.5135 26.0967 14.7533 26.0967C10.9931 26.0967 10.5472 26.0826 9.06259 26.0146C7.54749 25.9453 5.93029 25.5792 4.8283 24.476C3.70518 23.3529 3.36014 21.7721 3.28973 20.2417C3.22166 18.7571 3.20758 18.3112 3.20758 14.551C3.20758 10.7908 3.22166 10.3449 3.28973 8.8603C3.35897 7.33934 3.72043 5.73388 4.8283 4.62602C5.95494 3.49938 7.52637 3.15787 9.06259 3.08745C10.5472 3.01939 10.9931 3.0053 14.7533 3.0053ZM14.7533 0.468018C10.9286 0.468018 10.4486 0.484448 8.94641 0.552515C6.76941 0.65227 4.60766 1.25784 3.03389 2.83161C1.45424 4.41125 0.854541 6.5683 0.754786 8.74412C0.686718 10.2463 0.670288 10.7263 0.670288 14.551C0.670288 18.3757 0.686718 18.8557 0.754786 20.3579C0.854541 22.5325 1.46246 24.7001 3.03389 26.2704C4.61236 27.8489 6.77293 28.4497 8.94641 28.5495C10.4486 28.6176 10.9286 28.634 14.7533 28.634C18.578 28.634 19.058 28.6176 20.5602 28.5495C22.736 28.4497 24.9001 27.843 26.4727 26.2704C28.0535 24.6896 28.6521 22.5337 28.7518 20.3579C28.8199 18.8557 28.8363 18.3757 28.8363 14.551C28.8363 10.7263 28.8199 10.2463 28.7518 8.74412C28.6521 6.56712 28.0453 4.40421 26.4727 2.83161C24.8966 1.25549 22.7302 0.651096 20.5602 0.552515C19.058 0.484448 18.578 0.468018 14.7533 0.468018Z" fill="white"/>
<path d="M14.7534 7.31934C10.7596 7.31934 7.52173 10.5573 7.52173 14.551C7.52173 18.5447 10.7596 21.7826 14.7534 21.7826C18.7471 21.7826 21.985 18.5447 21.985 14.551C21.985 10.5573 18.7471 7.31934 14.7534 7.31934ZM14.7534 19.2453C12.1609 19.2453 10.059 17.1434 10.059 14.551C10.059 11.9585 12.1609 9.85662 14.7534 9.85662C17.3458 9.85662 19.4477 11.9585 19.4477 14.551C19.4477 17.1434 17.3458 19.2453 14.7534 19.2453Z" fill="white"/>
<ellipse cx="22.2713" cy="7.03298" rx="1.68996" ry="1.68996" fill="white"/>
</svg>
