<svg width="29" height="30" viewBox="0 0 29 30" fill="none" xmlns="http://www.w3.org/2000/svg">
<path fill-rule="evenodd" clip-rule="evenodd" d="M24.8041 5.07781C22.1153 2.38658 18.5405 0.903297 14.7323 0.9021C6.88493 0.9021 0.498064 7.28777 0.494472 15.1388C0.493275 17.648 1.14932 20.0974 2.39557 22.2571L0.374756 29.634L7.92168 27.6539C10.0011 28.7888 12.3428 29.3862 14.7252 29.3874H14.7311C22.5774 29.3874 28.9654 23.0005 28.969 15.1495C28.9714 11.3462 27.4917 7.76783 24.8041 5.07781ZM14.7323 26.9823H14.7276C12.6038 26.9823 10.5219 26.4113 8.70462 25.3326L8.27245 25.0764L3.79386 26.2508L4.98982 21.8836L4.70849 21.4359C3.5233 19.5515 2.89838 17.3739 2.89957 15.1388C2.90197 8.61423 8.21139 3.306 14.7383 3.306C17.8988 3.306 20.8702 4.53908 23.1041 6.77538C25.338 9.01288 26.5675 11.9854 26.5663 15.1472C26.5627 21.6741 21.2545 26.9823 14.7323 26.9823ZM21.2234 18.1197C20.8678 17.9413 19.1188 17.0806 18.7919 16.9621C18.4663 16.8435 18.2293 16.7837 17.991 17.1392C17.7528 17.4948 17.0728 18.2969 16.8645 18.5351C16.6574 18.7722 16.4491 18.8021 16.0935 18.6237C15.738 18.4453 14.5911 18.0706 13.2323 16.8579C12.1752 15.9145 11.4605 14.7497 11.2534 14.3929C11.0463 14.0362 11.2318 13.8446 11.409 13.6675C11.5694 13.5082 11.7646 13.252 11.943 13.0437C12.1225 12.8378 12.1812 12.6894 12.3009 12.4511C12.4194 12.2141 12.3608 12.0058 12.271 11.8274C12.1812 11.6502 11.4701 9.89878 11.1744 9.18647C10.8859 8.49212 10.5925 8.58669 10.3735 8.57592C10.1664 8.56515 9.92932 8.56395 9.69108 8.56395C9.45405 8.56395 9.06856 8.65254 8.74293 9.00929C8.4173 9.36605 7.49788 10.2268 7.49788 11.9771C7.49788 13.7285 8.77286 15.4201 8.95004 15.6571C9.12722 15.8942 11.4581 19.4881 15.0268 21.0288C15.8756 21.3952 16.5389 21.6142 17.0548 21.7782C17.9072 22.0488 18.683 22.0105 19.2959 21.9195C19.9795 21.8177 21.4005 21.0587 21.6974 20.2279C21.9943 19.3971 21.9943 18.6836 21.9046 18.5363C21.816 18.3867 21.5789 18.2981 21.2234 18.1197Z" fill="white"/>
</svg>
