<svg width="179" height="51" viewBox="0 0 179 51" fill="none" xmlns="http://www.w3.org/2000/svg">
<path d="M24.6321 5.18214L34.0783 34.5821H21.8955L20.791 29.859H12.2722L11.0798 34.5821H7.62939e-06L9.44695 5.18214H24.6321ZM16.5092 12.0688L16.1118 13.8342L15.538 16.262L15.3616 17.013L14.0375 22.6627H19.0703L17.5691 16.4384L17.4813 15.9092L17.0838 13.8789C16.9067 13.084 16.8189 12.6866 16.6864 11.76H16.5531L16.5092 12.0688Z" fill="#304046"/>
<path d="M63.6307 23.7672V23.8989C63.6307 30.962 58.2453 35.3323 49.5493 35.3323C40.0145 35.3323 34.4966 29.7257 34.4966 20.0146C34.4966 10.0824 39.9259 4.52052 49.6379 4.52052C58.5102 4.52052 63.4104 8.66978 63.4544 16.2181H52.5948C52.4184 13.3929 51.5796 12.2013 49.8142 12.2013C47.3865 12.2013 46.5916 14.1439 46.5916 19.8382C46.5916 25.5326 47.4743 27.6954 49.8142 27.6954C51.6243 27.6954 52.5062 26.4599 52.5948 23.7672H63.6307Z" fill="#304046"/>
<path d="M94.8168 23.7672V23.8989C94.8168 30.962 89.4314 35.3323 80.7354 35.3323C71.1998 35.3323 65.6826 29.7257 65.6826 20.0146C65.6826 10.0824 71.112 4.52052 80.8232 4.52052C89.6963 4.52052 94.5965 8.66978 94.6404 16.2181H83.7809C83.6045 13.3929 82.7657 12.2013 81.0003 12.2013C78.5725 12.2013 77.7776 14.1439 77.7776 19.8382C77.7776 25.5326 78.6603 27.6954 81.0003 27.6954C82.8104 27.6954 83.6923 26.4599 83.7809 23.7672H94.8168Z" fill="#304046"/>
<path d="M110.178 5.18214V34.5821H98.4369V5.18214H110.178Z" fill="#304046"/>
<path d="M162.752 5.18214L166.77 16.1742C167.962 19.4408 168.094 19.8382 168.889 22.8398H169.065C168.845 19.4847 168.8 18.5134 168.8 14.9379V5.18214H178.379V34.5821H164.297L160.016 23.017C159.442 21.4711 158.603 18.867 157.985 16.5716H157.809C157.897 18.2931 157.985 20.9859 157.985 22.8398V34.5821H148.406V5.18214H162.752Z" fill="#304046"/>
<path d="M143.575 18.9123C143.575 26.6864 139.098 36.3867 129.984 36.3867C120.87 36.3867 116.393 26.6864 116.393 18.9123C116.393 11.1384 122.478 8.23384 129.984 8.23384C137.49 8.23384 143.575 11.1384 143.575 18.9123Z" fill="#304046"/>
<path d="M116.86 19.8837C115.405 19.5193 114.452 20.2973 114.452 21.8246C114.452 23.8473 116.409 28.8022 118.466 25.7082C120.523 22.6134 116.86 19.8837 116.86 19.8837Z" fill="#304046"/>
<path d="M142.888 19.8837C144.476 19.5193 145.517 20.2973 145.517 21.8246C145.517 23.8473 143.381 28.8022 141.135 25.7082C138.89 22.6134 142.888 19.8837 142.888 19.8837Z" fill="#304046"/>
<path d="M141.633 5.52492V3.95131C141.633 3.41444 141.198 2.97926 140.661 2.97926H139.694C139.445 2.97926 139.223 3.08018 139.051 3.23347C137.09 1.99568 134.679 1.32253 131.926 1.11681V1.03905C131.926 0.502213 131.491 0.0670319 130.953 0.0670319H129.015C128.478 0.0670319 128.042 0.502213 128.042 1.03905V1.11681C125.273 1.32478 122.87 2.00569 120.922 3.23653C120.749 3.08095 120.526 2.97926 120.275 2.97926H119.307C118.77 2.97926 118.335 3.41444 118.335 3.95131V5.52644C116.467 7.84404 115.423 11.133 115.423 15.5996V17.5406H144.546V15.5996C144.546 11.106 143.49 7.82869 141.633 5.52492Z" fill="#EBEBEB"/>
<path d="M129.984 13.6578C123.769 13.6578 114.468 15.3962 114.468 17.5406H145.501C145.501 15.3962 136.2 13.6578 129.984 13.6578Z" fill="#D3D3D3"/>
<path d="M24.9688 48.933V40.933H27.6719C28.2969 40.933 28.8099 41.0397 29.2109 41.2533C29.612 41.4642 29.9089 41.7546 30.1016 42.1244C30.2943 42.4942 30.3906 42.9147 30.3906 43.3861C30.3906 43.8574 30.2943 44.2754 30.1016 44.64C29.9089 45.0046 29.6133 45.291 29.2148 45.4994C28.8164 45.7051 28.3073 45.808 27.6875 45.808H25.5V44.933H27.6563C28.0833 44.933 28.4271 44.8705 28.6875 44.7455C28.9505 44.6205 29.1406 44.4434 29.2578 44.2142C29.3776 43.9824 29.4375 43.7064 29.4375 43.3861C29.4375 43.0658 29.3776 42.7858 29.2578 42.5462C29.138 42.3067 28.9466 42.1218 28.6836 41.9916C28.4206 41.8587 28.0729 41.7923 27.6406 41.7923H25.9375V48.933H24.9688ZM28.7344 45.3392L30.7031 48.933H29.5781L27.6406 45.3392H28.7344ZM41.1749 44.933C41.1749 45.7767 41.0225 46.5059 40.7179 47.1205C40.4132 47.7351 39.9952 48.209 39.4639 48.5423C38.9327 48.8757 38.3259 49.0423 37.6436 49.0423C36.9613 49.0423 36.3546 48.8757 35.8233 48.5423C35.2921 48.209 34.8741 47.7351 34.5694 47.1205C34.2647 46.5059 34.1124 45.7767 34.1124 44.933C34.1124 44.0892 34.2647 43.3601 34.5694 42.7455C34.8741 42.1309 35.2921 41.6569 35.8233 41.3236C36.3546 40.9903 36.9613 40.8236 37.6436 40.8236C38.3259 40.8236 38.9327 40.9903 39.4639 41.3236C39.9952 41.6569 40.4132 42.1309 40.7179 42.7455C41.0225 43.3601 41.1749 44.0892 41.1749 44.933ZM40.2374 44.933C40.2374 44.2403 40.1215 43.6556 39.8897 43.1791C39.6606 42.7025 39.3494 42.3418 38.9561 42.097C38.5655 41.8522 38.128 41.7298 37.6436 41.7298C37.1593 41.7298 36.7205 41.8522 36.3272 42.097C35.9366 42.3418 35.6254 42.7025 35.3936 43.1791C35.1645 43.6556 35.0499 44.2403 35.0499 44.933C35.0499 45.6257 35.1645 46.2103 35.3936 46.6869C35.6254 47.1634 35.9366 47.5241 36.3272 47.7689C36.7205 48.0137 37.1593 48.1361 37.6436 48.1361C38.128 48.1361 38.5655 48.0137 38.9561 47.7689C39.3494 47.5241 39.6606 47.1634 39.8897 46.6869C40.1215 46.2103 40.2374 45.6257 40.2374 44.933ZM45.2238 48.933V40.933H47.9269C48.5545 40.933 49.0675 41.0462 49.466 41.2728C49.867 41.4968 50.1639 41.8002 50.3566 42.183C50.5493 42.5658 50.6457 42.9929 50.6457 43.4642C50.6457 43.9356 50.5493 44.364 50.3566 44.7494C50.1665 45.1348 49.8722 45.4421 49.4738 45.6712C49.0754 45.8978 48.5649 46.0111 47.9425 46.0111H46.005V45.1517H47.9113C48.341 45.1517 48.686 45.0775 48.9464 44.9291C49.2069 44.7806 49.3957 44.5801 49.5129 44.3275C49.6326 44.0723 49.6925 43.7845 49.6925 43.4642C49.6925 43.1439 49.6326 42.8574 49.5129 42.6048C49.3957 42.3522 49.2056 42.1543 48.9425 42.0111C48.6795 41.8653 48.3306 41.7923 47.8957 41.7923H46.1925V48.933H45.2238ZM54.1379 48.933H53.1223L56.0598 40.933H57.0598L59.9973 48.933H58.9817L56.5911 42.1986H56.5286L54.1379 48.933ZM54.5129 45.808H58.6067V46.6673H54.5129V45.808ZM71.6459 48.933H69.1771V40.933H71.7553C72.5313 40.933 73.1954 41.0931 73.7475 41.4134C74.2995 41.7311 74.7227 42.1882 75.017 42.7845C75.3113 43.3783 75.4584 44.0892 75.4584 44.9173C75.4584 45.7507 75.31 46.4681 75.0131 47.0697C74.7162 47.6686 74.2839 48.1296 73.7162 48.4525C73.1485 48.7728 72.4584 48.933 71.6459 48.933ZM70.1459 48.0736H71.5834C72.2449 48.0736 72.793 47.946 73.2279 47.6908C73.6628 47.4356 73.987 47.0723 74.2006 46.6009C74.4141 46.1296 74.5209 45.5684 74.5209 44.9173C74.5209 44.2715 74.4154 43.7155 74.2045 43.2494C73.9936 42.7806 73.6784 42.4212 73.2592 42.1712C72.8399 41.9186 72.3178 41.7923 71.6928 41.7923H70.1459V48.0736ZM79.5034 48.933V40.933H84.3315V41.7923H80.4721V44.4955H84.0815V45.3548H80.4721V48.0736H84.394V48.933H79.5034ZM93.5739 41.7923V40.933H99.5739V41.7923H97.0582V48.933H96.0895V41.7923H93.5739ZM103.489 48.933V40.933H106.192C106.817 40.933 107.33 41.0397 107.731 41.2533C108.132 41.4642 108.429 41.7546 108.622 42.1244C108.815 42.4942 108.911 42.9147 108.911 43.3861C108.911 43.8574 108.815 44.2754 108.622 44.64C108.429 45.0046 108.134 45.291 107.735 45.4994C107.337 45.7051 106.828 45.808 106.208 45.808H104.02V44.933H106.176C106.604 44.933 106.947 44.8705 107.208 44.7455C107.471 44.6205 107.661 44.4434 107.778 44.2142C107.898 43.9824 107.958 43.7064 107.958 43.3861C107.958 43.0658 107.898 42.7858 107.778 42.5462C107.658 42.3067 107.467 42.1218 107.204 41.9916C106.941 41.8587 106.593 41.7923 106.161 41.7923H104.458V48.933H103.489ZM107.255 45.3392L109.223 48.933H108.098L106.161 45.3392H107.255ZM113.273 48.933H112.258L115.195 40.933H116.195L119.133 48.933H118.117L115.726 42.1986H115.664L113.273 48.933ZM113.648 45.808H117.742V46.6673H113.648V45.808ZM122.799 48.933V40.933H125.596C126.153 40.933 126.613 41.0293 126.974 41.222C127.336 41.4121 127.606 41.6686 127.783 41.9916C127.96 42.3119 128.049 42.6673 128.049 43.058C128.049 43.4017 127.988 43.6856 127.865 43.9095C127.745 44.1335 127.586 44.3106 127.389 44.4408C127.193 44.571 126.981 44.6673 126.752 44.7298V44.808C126.997 44.8236 127.243 44.9095 127.49 45.0658C127.738 45.222 127.945 45.446 128.111 45.7377C128.278 46.0293 128.361 46.3861 128.361 46.808C128.361 47.209 128.27 47.5697 128.088 47.89C127.905 48.2103 127.618 48.4642 127.224 48.6517C126.831 48.8392 126.32 48.933 125.689 48.933H122.799ZM123.767 48.0736H125.689C126.322 48.0736 126.771 47.9512 127.037 47.7064C127.305 47.459 127.439 47.1595 127.439 46.808C127.439 46.5371 127.37 46.2871 127.232 46.058C127.094 45.8262 126.898 45.6413 126.642 45.5033C126.387 45.3627 126.085 45.2923 125.736 45.2923H123.767V48.0736ZM123.767 44.4486H125.564C125.856 44.4486 126.119 44.3913 126.353 44.2767C126.59 44.1621 126.778 44.0007 126.916 43.7923C127.057 43.584 127.127 43.3392 127.127 43.058C127.127 42.7064 127.004 42.4082 126.76 42.1634C126.515 41.916 126.127 41.7923 125.596 41.7923H123.767V44.4486ZM132.701 48.933H131.686L134.623 40.933H135.623L138.561 48.933H137.545L135.154 42.1986H135.092L132.701 48.933ZM133.076 45.808H137.17V46.6673H133.076V45.808ZM145.289 40.933H146.258V46.6517C146.258 47.1621 146.164 47.5957 145.977 47.9525C145.789 48.3093 145.525 48.5801 145.184 48.765C144.842 48.9499 144.44 49.0423 143.977 49.0423C143.539 49.0423 143.15 48.9629 142.809 48.8041C142.467 48.6426 142.199 48.4134 142.004 48.1166C141.809 47.8197 141.711 47.4668 141.711 47.058H142.664C142.664 47.2845 142.72 47.4824 142.832 47.6517C142.947 47.8184 143.103 47.9486 143.301 48.0423C143.499 48.1361 143.724 48.183 143.977 48.183C144.255 48.183 144.492 48.1244 144.688 48.0072C144.883 47.89 145.031 47.7181 145.133 47.4916C145.237 47.2624 145.289 46.9824 145.289 46.6517V40.933ZM157.369 44.933C157.369 45.7767 157.217 46.5059 156.912 47.1205C156.608 47.7351 156.19 48.209 155.658 48.5423C155.127 48.8757 154.52 49.0423 153.838 49.0423C153.156 49.0423 152.549 48.8757 152.018 48.5423C151.486 48.209 151.068 47.7351 150.764 47.1205C150.459 46.5059 150.307 45.7767 150.307 44.933C150.307 44.0892 150.459 43.3601 150.764 42.7455C151.068 42.1309 151.486 41.6569 152.018 41.3236C152.549 40.9903 153.156 40.8236 153.838 40.8236C154.52 40.8236 155.127 40.9903 155.658 41.3236C156.19 41.6569 156.608 42.1309 156.912 42.7455C157.217 43.3601 157.369 44.0892 157.369 44.933ZM156.432 44.933C156.432 44.2403 156.316 43.6556 156.084 43.1791C155.855 42.7025 155.544 42.3418 155.151 42.097C154.76 41.8522 154.322 41.7298 153.838 41.7298C153.354 41.7298 152.915 41.8522 152.522 42.097C152.131 42.3418 151.82 42.7025 151.588 43.1791C151.359 43.6556 151.244 44.2403 151.244 44.933C151.244 45.6257 151.359 46.2103 151.588 46.6869C151.82 47.1634 152.131 47.5241 152.522 47.7689C152.915 48.0137 153.354 48.1361 153.838 48.1361C154.322 48.1361 154.76 48.0137 155.151 47.7689C155.544 47.5241 155.855 47.1634 156.084 46.6869C156.316 46.2103 156.432 45.6257 156.432 44.933Z" fill="#304046"/>
</svg>
